# xmcd CD database file
# Copyright (C) 1993-1996 Ti Kan
#
# Track frame offsets:
#	182
#	19737
#	36617
#	54565
#	71805
#	90327
#	106867
#	126065
#	141060
#	159145
#	186125
#
# Disc length: 2736 seconds
#
# Revision: 1
# Processed by: cddbd v1.4b41PL1 Copyright (c) Steve Scherf et al.
# Submitted via: EasyCD2 v3.00 - Copyright (c) 1997 Greg Leichner
#
DISCID=8d0aae0b
DTITLE=Bordell - Por mi culpa
DYEAR=1900
DGENRE=
TTITLE0=Kassandra
TTITLE1=Amantes De La Noche
TTITLE2=Siempre Te Amari
TTITLE3=Si Sslo...
TTITLE4=Por Mi Culpa
TTITLE5=Amazonas
TTITLE6=Amor De Compra Y Venta
TTITLE7=Seqor Ayzdame
TTITLE8=Ave Marma
TTITLE9=Questo Piccolo Grande Amore
TTITLE10=Sobre El Amparo
EXTD=
EXTT0=
EXTT1=
EXTT2=
EXTT3=
EXTT4=
EXTT5=
EXTT6=
EXTT7=
EXTT8=
EXTT9=
EXTT10=
PLAYORDER=
